<?xml version="1.0" encoding="UTF-8" standalone="no"?>
<!DOCTYPE svg PUBLIC "-//W3C//DTD SVG 1.1//EN"
 "http://www.w3.org/Graphics/SVG/1.1/DTD/svg11.dtd">
<!-- Generated by graphviz version 2.40.1 (20161225.0304)
 -->
<!-- Title: %3 Pages: 1 -->
<svg width="723pt" height="649pt"
 viewBox="0.00 0.00 723.00 649.00" xmlns="http://www.w3.org/2000/svg" xmlns:xlink="http://www.w3.org/1999/xlink">
<g id="graph0" class="graph" transform="scale(1 1) rotate(0) translate(72 613)">
<title>%3</title>
<polygon fill="#ffffff" stroke="transparent" points="-72,36 -72,-613 651,-613 651,36 -72,36"/>
<!-- RNNimc/RNN[rnn]/outputs/19 -->
<g id="node1" class="node">
<title>RNNimc/RNN[rnn]/outputs/19</title>
<polygon fill="#bcd6fc" stroke="#7c96bc" points="61,-285 0,-285 0,-249 61,-249 61,-285"/>
<text text-anchor="start" x="8.5" y="-264" font-family="Verdana" font-size="10.00" fill="#202020">Constant</text>
</g>
<!-- RNNimc/outputs/23/24 -->
<g id="node8" class="node">
<title>RNNimc/outputs/23/24</title>
<polygon fill="#bcd6fc" stroke="#7c96bc" points="334.5,-202 244.5,-202 244.5,-166 334.5,-166 334.5,-202"/>
<text text-anchor="start" x="252.5" y="-181" font-family="Verdana" font-size="10.00" fill="#202020">aten::rnn_relu</text>
</g>
<!-- RNNimc/RNN[rnn]/outputs/19&#45;&gt;RNNimc/outputs/23/24 -->
<g id="edge13" class="edge">
<title>RNNimc/RNN[rnn]/outputs/19&#45;&gt;RNNimc/outputs/23/24</title>
<path fill="none" stroke="#7c96bc" d="M61.4073,-252.2429C64.1236,-251.0961 66.8478,-249.9978 69.5,-249 124.6012,-228.2695 189.4208,-209.8074 234.3639,-197.906"/>
<polygon fill="#7c96bc" stroke="#7c96bc" points="235.4247,-201.2461 244.2072,-195.3201 233.646,-194.4759 235.4247,-201.2461"/>
</g>
<!-- RNNimc/RNN[rnn]/outputs/21 -->
<g id="node2" class="node">
<title>RNNimc/RNN[rnn]/outputs/21</title>
<polygon fill="#bcd6fc" stroke="#7c96bc" points="140,-285 79,-285 79,-249 140,-249 140,-285"/>
<text text-anchor="start" x="87.5" y="-264" font-family="Verdana" font-size="10.00" fill="#202020">Constant</text>
</g>
<!-- RNNimc/RNN[rnn]/outputs/21&#45;&gt;RNNimc/outputs/23/24 -->
<g id="edge15" class="edge">
<title>RNNimc/RNN[rnn]/outputs/21&#45;&gt;RNNimc/outputs/23/24</title>
<path fill="none" stroke="#7c96bc" d="M140.1562,-252.8494C142.9771,-251.5478 145.7914,-250.2494 148.5,-249 179.2626,-234.8103 213.8045,-218.8866 241.0002,-206.3516"/>
<polygon fill="#7c96bc" stroke="#7c96bc" points="242.6783,-209.432 250.295,-202.0675 239.7481,-203.0748 242.6783,-209.432"/>
</g>
<!-- RNNimc/RNN[rnn]/outputs/18 -->
<g id="node3" class="node">
<title>RNNimc/RNN[rnn]/outputs/18</title>
<polygon fill="#bcd6fc" stroke="#7c96bc" points="219,-285 158,-285 158,-249 219,-249 219,-285"/>
<text text-anchor="start" x="166.5" y="-264" font-family="Verdana" font-size="10.00" fill="#202020">Constant</text>
</g>
<!-- RNNimc/RNN[rnn]/outputs/18&#45;&gt;RNNimc/outputs/23/24 -->
<g id="edge12" class="edge">
<title>RNNimc/RNN[rnn]/outputs/18&#45;&gt;RNNimc/outputs/23/24</title>
<path fill="none" stroke="#7c96bc" d="M210.4155,-248.9902C224.7431,-237.2161 243.6478,-221.6805 259.3811,-208.7512"/>
<polygon fill="#7c96bc" stroke="#7c96bc" points="261.7747,-211.3144 267.2785,-202.2612 257.3304,-205.9062 261.7747,-211.3144"/>
</g>
<!-- /outputs/13 -->
<g id="node4" class="node">
<title>/outputs/13</title>
<polygon fill="#bcd6fc" stroke="#7c96bc" points="236,-431 165,-431 165,-395 236,-395 236,-431"/>
<text text-anchor="start" x="173.5" y="-410" font-family="Verdana" font-size="10.00" fill="#202020">Unsqueeze</text>
</g>
<!-- /outputs/15 -->
<g id="node10" class="node">
<title>/outputs/15</title>
<polygon fill="#bcd6fc" stroke="#7c96bc" points="316.5,-358 262.5,-358 262.5,-322 316.5,-322 316.5,-358"/>
<text text-anchor="start" x="272.5" y="-337" font-family="Verdana" font-size="10.00" fill="#202020">Concat</text>
</g>
<!-- /outputs/13&#45;&gt;/outputs/15 -->
<g id="edge7" class="edge">
<title>/outputs/13&#45;&gt;/outputs/15</title>
<path fill="none" stroke="#7c96bc" d="M222.5,-394.9551C233.6251,-385.8299 247.2964,-374.6165 259.3819,-364.7036"/>
<polygon fill="#7c96bc" stroke="#7c96bc" points="261.9324,-367.1384 267.4446,-358.0904 257.4931,-361.7261 261.9324,-367.1384"/>
</g>
<!-- RNNimc/RNN[rnn]/outputs/16 -->
<g id="node5" class="node">
<title>RNNimc/RNN[rnn]/outputs/16</title>
<polygon fill="#bcd6fc" stroke="#7c96bc" points="341.5,-285 237.5,-285 237.5,-249 341.5,-249 341.5,-285"/>
<text text-anchor="start" x="245.5" y="-264" font-family="Verdana" font-size="10.00" fill="#202020">ConstantOfShape</text>
</g>
<!-- RNNimc/RNN[rnn]/outputs/16&#45;&gt;RNNimc/outputs/23/24 -->
<g id="edge10" class="edge">
<title>RNNimc/RNN[rnn]/outputs/16&#45;&gt;RNNimc/outputs/23/24</title>
<path fill="none" stroke="#7c96bc" d="M289.5,-248.9902C289.5,-238.2963 289.5,-224.4994 289.5,-212.3706"/>
<polygon fill="#7c96bc" stroke="#7c96bc" points="293.0001,-212.2612 289.5,-202.2612 286.0001,-212.2613 293.0001,-212.2612"/>
<text text-anchor="middle" x="311.5" y="-223" font-family="Verdana" font-size="10.00" fill="#202020">1x1x128</text>
</g>
<!-- RNNimc/RNN[rnn]/outputs/8 -->
<g id="node6" class="node">
<title>RNNimc/RNN[rnn]/outputs/8</title>
<polygon fill="#bcd6fc" stroke="#7c96bc" points="189.5,-577 135.5,-577 135.5,-541 189.5,-541 189.5,-577"/>
<text text-anchor="start" x="146.5" y="-556" font-family="Verdana" font-size="10.00" fill="#202020">Shape</text>
</g>
<!-- RNNimc/RNN[rnn]/outputs/9 -->
<g id="node16" class="node">
<title>RNNimc/RNN[rnn]/outputs/9</title>
<polygon fill="#bcd6fc" stroke="#7c96bc" points="227.5,-504 173.5,-504 173.5,-468 227.5,-468 227.5,-504"/>
<text text-anchor="start" x="183.5" y="-483" font-family="Verdana" font-size="10.00" fill="#202020">Gather</text>
</g>
<!-- RNNimc/RNN[rnn]/outputs/8&#45;&gt;RNNimc/RNN[rnn]/outputs/9 -->
<g id="edge2" class="edge">
<title>RNNimc/RNN[rnn]/outputs/8&#45;&gt;RNNimc/RNN[rnn]/outputs/9</title>
<path fill="none" stroke="#7c96bc" d="M171.8933,-540.9551C176.2779,-532.5319 181.5889,-522.3292 186.4386,-513.0128"/>
<polygon fill="#7c96bc" stroke="#7c96bc" points="189.5703,-514.5766 191.0831,-504.0904 183.3611,-511.3445 189.5703,-514.5766"/>
</g>
<!-- RNNimc/outputs/25 -->
<g id="node7" class="node">
<title>RNNimc/outputs/25</title>
<polygon fill="#bcd6fc" stroke="#7c96bc" points="414,-202 353,-202 353,-166 414,-166 414,-202"/>
<text text-anchor="start" x="361.5" y="-181" font-family="Verdana" font-size="10.00" fill="#202020">Constant</text>
</g>
<!-- RNNimc/outputs/26 -->
<g id="node9" class="node">
<title>RNNimc/outputs/26</title>
<polygon fill="#bcd6fc" stroke="#7c96bc" points="363.5,-119 309.5,-119 309.5,-83 363.5,-83 363.5,-119"/>
<text text-anchor="start" x="319.5" y="-98" font-family="Verdana" font-size="10.00" fill="#202020">Gather</text>
</g>
<!-- RNNimc/outputs/25&#45;&gt;RNNimc/outputs/26 -->
<g id="edge18" class="edge">
<title>RNNimc/outputs/25&#45;&gt;RNNimc/outputs/26</title>
<path fill="none" stroke="#7c96bc" d="M377.408,-165.5969C374.1256,-156.6881 369.6838,-145.9992 364.5,-137 362.6524,-133.7925 360.5458,-130.5559 358.3365,-127.4078"/>
<polygon fill="#7c96bc" stroke="#7c96bc" points="361.1304,-125.2995 352.3555,-119.3622 355.5126,-129.4757 361.1304,-125.2995"/>
</g>
<!-- RNNimc/outputs/23/24&#45;&gt;RNNimc/outputs/26 -->
<g id="edge17" class="edge">
<title>RNNimc/outputs/23/24&#45;&gt;RNNimc/outputs/26</title>
<path fill="none" stroke="#7c96bc" d="M299.6983,-165.9902C305.9374,-154.9722 314.0417,-140.6604 321.0564,-128.2727"/>
<polygon fill="#7c96bc" stroke="#7c96bc" points="324.2774,-129.6876 326.1593,-119.2612 318.1862,-126.2383 324.2774,-129.6876"/>
<text text-anchor="middle" x="338.5" y="-140" font-family="Verdana" font-size="10.00" fill="#202020">1x1x128</text>
</g>
<!-- RNNimc/Linear[fc1]/outputs/27 -->
<g id="node20" class="node">
<title>RNNimc/Linear[fc1]/outputs/27</title>
<polygon fill="#bcd6fc" stroke="#7c96bc" points="363.5,-36 309.5,-36 309.5,0 363.5,0 363.5,-36"/>
<text text-anchor="start" x="321.5" y="-15" font-family="Verdana" font-size="10.00" fill="#202020">Linear</text>
</g>
<!-- RNNimc/outputs/26&#45;&gt;RNNimc/Linear[fc1]/outputs/27 -->
<g id="edge19" class="edge">
<title>RNNimc/outputs/26&#45;&gt;RNNimc/Linear[fc1]/outputs/27</title>
<path fill="none" stroke="#7c96bc" d="M336.5,-82.9902C336.5,-72.2963 336.5,-58.4994 336.5,-46.3706"/>
<polygon fill="#7c96bc" stroke="#7c96bc" points="340.0001,-46.2612 336.5,-36.2612 333.0001,-46.2613 340.0001,-46.2612"/>
<text text-anchor="middle" x="352.5" y="-57" font-family="Verdana" font-size="10.00" fill="#202020">1x128</text>
</g>
<!-- /outputs/15&#45;&gt;RNNimc/RNN[rnn]/outputs/16 -->
<g id="edge9" class="edge">
<title>/outputs/15&#45;&gt;RNNimc/RNN[rnn]/outputs/16</title>
<path fill="none" stroke="#7c96bc" d="M289.5,-321.9551C289.5,-313.8828 289.5,-304.1764 289.5,-295.1817"/>
<polygon fill="#7c96bc" stroke="#7c96bc" points="293.0001,-295.0903 289.5,-285.0904 286.0001,-295.0904 293.0001,-295.0903"/>
</g>
<!-- RNNimc/RNN[rnn]/outputs/10 -->
<g id="node11" class="node">
<title>RNNimc/RNN[rnn]/outputs/10</title>
<polygon fill="#bcd6fc" stroke="#7c96bc" points="320,-504 259,-504 259,-468 320,-468 320,-504"/>
<text text-anchor="start" x="267.5" y="-483" font-family="Verdana" font-size="10.00" fill="#202020">Constant</text>
</g>
<!-- /outputs/12 -->
<g id="node12" class="node">
<title>/outputs/12</title>
<polygon fill="#bcd6fc" stroke="#7c96bc" points="325,-431 254,-431 254,-395 325,-395 325,-431"/>
<text text-anchor="start" x="262.5" y="-410" font-family="Verdana" font-size="10.00" fill="#202020">Unsqueeze</text>
</g>
<!-- RNNimc/RNN[rnn]/outputs/10&#45;&gt;/outputs/12 -->
<g id="edge4" class="edge">
<title>RNNimc/RNN[rnn]/outputs/10&#45;&gt;/outputs/12</title>
<path fill="none" stroke="#7c96bc" d="M289.5,-467.9551C289.5,-459.8828 289.5,-450.1764 289.5,-441.1817"/>
<polygon fill="#7c96bc" stroke="#7c96bc" points="293.0001,-441.0903 289.5,-431.0904 286.0001,-441.0904 293.0001,-441.0903"/>
</g>
<!-- /outputs/12&#45;&gt;/outputs/15 -->
<g id="edge6" class="edge">
<title>/outputs/12&#45;&gt;/outputs/15</title>
<path fill="none" stroke="#7c96bc" d="M289.5,-394.9551C289.5,-386.8828 289.5,-377.1764 289.5,-368.1817"/>
<polygon fill="#7c96bc" stroke="#7c96bc" points="293.0001,-368.0903 289.5,-358.0904 286.0001,-368.0904 293.0001,-368.0903"/>
</g>
<!-- /outputs/14 -->
<g id="node13" class="node">
<title>/outputs/14</title>
<polygon fill="#bcd6fc" stroke="#7c96bc" points="414,-431 343,-431 343,-395 414,-395 414,-431"/>
<text text-anchor="start" x="351.5" y="-410" font-family="Verdana" font-size="10.00" fill="#202020">Unsqueeze</text>
</g>
<!-- /outputs/14&#45;&gt;/outputs/15 -->
<g id="edge8" class="edge">
<title>/outputs/14&#45;&gt;/outputs/15</title>
<path fill="none" stroke="#7c96bc" d="M356.5,-394.9551C345.3749,-385.8299 331.7036,-374.6165 319.6181,-364.7036"/>
<polygon fill="#7c96bc" stroke="#7c96bc" points="321.5069,-361.7261 311.5554,-358.0904 317.0676,-367.1384 321.5069,-361.7261"/>
</g>
<!-- RNNimc/RNN[rnn]/outputs/22 -->
<g id="node14" class="node">
<title>RNNimc/RNN[rnn]/outputs/22</title>
<polygon fill="#bcd6fc" stroke="#7c96bc" points="421,-285 360,-285 360,-249 421,-249 421,-285"/>
<text text-anchor="start" x="368.5" y="-264" font-family="Verdana" font-size="10.00" fill="#202020">Constant</text>
</g>
<!-- RNNimc/RNN[rnn]/outputs/22&#45;&gt;RNNimc/outputs/23/24 -->
<g id="edge16" class="edge">
<title>RNNimc/RNN[rnn]/outputs/22&#45;&gt;RNNimc/outputs/23/24</title>
<path fill="none" stroke="#7c96bc" d="M370.9513,-248.9758C361.0878,-240.0596 348.8383,-229.2533 337.5,-220 332.847,-216.2026 327.8551,-212.2897 322.9131,-208.5059"/>
<polygon fill="#7c96bc" stroke="#7c96bc" points="324.7987,-205.5437 314.7116,-202.303 320.5761,-211.1267 324.7987,-205.5437"/>
</g>
<!-- RNNimc/RNN[rnn]/outputs/20 -->
<g id="node15" class="node">
<title>RNNimc/RNN[rnn]/outputs/20</title>
<polygon fill="#bcd6fc" stroke="#7c96bc" points="500,-285 439,-285 439,-249 500,-249 500,-285"/>
<text text-anchor="start" x="447.5" y="-264" font-family="Verdana" font-size="10.00" fill="#202020">Constant</text>
</g>
<!-- RNNimc/RNN[rnn]/outputs/20&#45;&gt;RNNimc/outputs/23/24 -->
<g id="edge14" class="edge">
<title>RNNimc/RNN[rnn]/outputs/20&#45;&gt;RNNimc/outputs/23/24</title>
<path fill="none" stroke="#7c96bc" d="M438.8438,-252.8494C436.0229,-251.5478 433.2086,-250.2494 430.5,-249 399.7374,-234.8103 365.1955,-218.8866 337.9998,-206.3516"/>
<polygon fill="#7c96bc" stroke="#7c96bc" points="339.2519,-203.0748 328.705,-202.0675 336.3217,-209.432 339.2519,-203.0748"/>
</g>
<!-- RNNimc/RNN[rnn]/outputs/9&#45;&gt;/outputs/13 -->
<g id="edge3" class="edge">
<title>RNNimc/RNN[rnn]/outputs/9&#45;&gt;/outputs/13</title>
<path fill="none" stroke="#7c96bc" d="M200.5,-467.9551C200.5,-459.8828 200.5,-450.1764 200.5,-441.1817"/>
<polygon fill="#7c96bc" stroke="#7c96bc" points="204.0001,-441.0903 200.5,-431.0904 197.0001,-441.0904 204.0001,-441.0903"/>
</g>
<!-- RNNimc/RNN[rnn]/outputs/7 -->
<g id="node17" class="node">
<title>RNNimc/RNN[rnn]/outputs/7</title>
<polygon fill="#bcd6fc" stroke="#7c96bc" points="269,-577 208,-577 208,-541 269,-541 269,-577"/>
<text text-anchor="start" x="216.5" y="-556" font-family="Verdana" font-size="10.00" fill="#202020">Constant</text>
</g>
<!-- RNNimc/RNN[rnn]/outputs/7&#45;&gt;RNNimc/RNN[rnn]/outputs/9 -->
<g id="edge1" class="edge">
<title>RNNimc/RNN[rnn]/outputs/7&#45;&gt;RNNimc/RNN[rnn]/outputs/9</title>
<path fill="none" stroke="#7c96bc" d="M229.1067,-540.9551C224.7221,-532.5319 219.4111,-522.3292 214.5614,-513.0128"/>
<polygon fill="#7c96bc" stroke="#7c96bc" points="217.6389,-511.3445 209.9169,-504.0904 211.4297,-514.5766 217.6389,-511.3445"/>
</g>
<!-- RNNimc/RNN[rnn]/outputs/17 -->
<g id="node18" class="node">
<title>RNNimc/RNN[rnn]/outputs/17</title>
<polygon fill="#bcd6fc" stroke="#7c96bc" points="579,-285 518,-285 518,-249 579,-249 579,-285"/>
<text text-anchor="start" x="526.5" y="-264" font-family="Verdana" font-size="10.00" fill="#202020">Constant</text>
</g>
<!-- RNNimc/RNN[rnn]/outputs/17&#45;&gt;RNNimc/outputs/23/24 -->
<g id="edge11" class="edge">
<title>RNNimc/RNN[rnn]/outputs/17&#45;&gt;RNNimc/outputs/23/24</title>
<path fill="none" stroke="#7c96bc" d="M517.605,-252.21C514.886,-251.0703 512.1579,-249.9827 509.5,-249 440.5306,-223.4986 418.572,-224.4449 344.3496,-202.1713"/>
<polygon fill="#7c96bc" stroke="#7c96bc" points="345.1174,-198.7465 334.5315,-199.182 343.0785,-205.443 345.1174,-198.7465"/>
</g>
<!-- RNNimc/RNN[rnn]/outputs/11 -->
<g id="node19" class="node">
<title>RNNimc/RNN[rnn]/outputs/11</title>
<polygon fill="#bcd6fc" stroke="#7c96bc" points="409,-504 348,-504 348,-468 409,-468 409,-504"/>
<text text-anchor="start" x="356.5" y="-483" font-family="Verdana" font-size="10.00" fill="#202020">Constant</text>
</g>
<!-- RNNimc/RNN[rnn]/outputs/11&#45;&gt;/outputs/14 -->
<g id="edge5" class="edge">
<title>RNNimc/RNN[rnn]/outputs/11&#45;&gt;/outputs/14</title>
<path fill="none" stroke="#7c96bc" d="M378.5,-467.9551C378.5,-459.8828 378.5,-450.1764 378.5,-441.1817"/>
<polygon fill="#7c96bc" stroke="#7c96bc" points="382.0001,-441.0903 378.5,-431.0904 375.0001,-441.0904 382.0001,-441.0903"/>
</g>
</g>
</svg>
